<?xml version="1.0" standalone="no"?>
<!DOCTYPE svg PUBLIC "-//W3C//DTD SVG 20010904//EN"
 "http://www.w3.org/TR/2001/REC-SVG-20010904/DTD/svg10.dtd">
<svg version="1.0" xmlns="http://www.w3.org/2000/svg"
 width="370.000000pt" height="125.000000pt" viewBox="0 0 370.000000 125.000000"
 preserveAspectRatio="xMidYMid meet">

<g transform="translate(0.000000,125.000000) scale(0.100000,-0.100000)"
fill="#000000" stroke="none">
<path d="M429 1206 c-282 -78 -463 -370 -420 -677 12 -80 24 -120 34 -109 3 3
61 115 130 250 185 361 204 395 221 398 26 5 89 -63 81 -88 -4 -11 -49 -109
-102 -218 -151 -314 -243 -512 -243 -526 0 -19 107 -116 161 -148 24 -14 63
-32 87 -39 36 -10 45 -10 56 2 8 8 68 127 133 264 237 494 257 535 275 541 23
7 71 -19 93 -52 l17 -27 -181 -366 c-100 -201 -181 -372 -181 -378 0 -17 11
-16 94 8 88 26 118 41 181 91 103 82 180 204 211 336 12 48 15 99 12 182 -6
139 -32 223 -102 329 -42 63 -129 151 -149 151 -4 0 -49 -84 -99 -187 -50
-104 -137 -284 -194 -401 -73 -152 -107 -212 -119 -212 -10 0 -35 18 -56 39
-33 33 -38 42 -30 62 5 13 88 188 185 388 97 200 176 366 176 370 0 29 -186
40 -271 17z"/>
<path d="M2401 1054 c-23 -61 -25 -74 -12 -74 7 0 78 98 89 123 2 4 -10 7 -26
7 -26 0 -31 -6 -51 -56z"/>
<path d="M2643 898 c4 -112 7 -238 7 -281 l0 -78 37 3 37 3 -3 190 c-2 105 -4
228 -5 275 l-1 85 -39 3 -39 3 6 -203z"/>
<path d="M2850 1081 c-15 -28 -12 -46 8 -64 26 -24 49 -21 68 8 15 23 15 27 0
50 -20 30 -61 33 -76 6z"/>
<path d="M2113 1016 c-20 -9 -23 -18 -23 -72 0 -49 -4 -65 -21 -80 -20 -18
-20 -18 -1 -25 16 -6 20 -21 25 -91 4 -45 7 -103 7 -128 0 -25 7 -56 16 -68
22 -31 73 -30 104 3 l23 25 -25 0 c-44 0 -52 22 -53 144 l0 111 35 5 c49 7 47
34 -2 38 l-38 3 0 75 c0 78 -3 82 -47 60z"/>
<path d="M3415 908 c-36 -19 -65 -51 -65 -70 0 -25 13 -23 25 5 7 16 20 23 46
25 30 3 41 -2 58 -24 11 -15 21 -39 21 -54 0 -24 -6 -28 -59 -43 -33 -9 -72
-28 -88 -41 -24 -21 -28 -32 -28 -74 0 -93 64 -121 133 -60 l36 31 6 -24 c5
-21 12 -24 63 -27 35 -2 57 1 57 8 0 5 -7 10 -15 10 -26 0 -35 45 -35 166 0
64 -5 124 -10 135 -22 41 -101 62 -145 37z m91 -193 c18 -70 -30 -140 -81
-117 -46 21 -35 98 18 125 45 22 56 21 63 -8z"/>
<path d="M2345 887 c-31 -17 -41 -29 -43 -52 l-2 -30 21 28 c40 53 129 18 129
-51 0 -27 -4 -31 -60 -46 -84 -24 -113 -51 -114 -107 -2 -96 65 -131 132 -68
35 33 42 33 46 2 2 -15 13 -18 62 -21 58 -2 59 -2 37 15 -21 17 -23 28 -26
143 -5 144 -17 181 -68 199 -46 16 -69 14 -114 -12z m103 -219 c3 -49 0 -58
-20 -72 -28 -20 -42 -20 -62 0 -16 16 -21 70 -8 90 10 15 65 44 77 40 6 -1 11
-28 13 -58z"/>
<path d="M2866 894 c-58 -16 -67 -23 -38 -31 30 -7 33 -27 30 -173 -3 -121 -4
-125 -25 -128 -13 -2 -23 -8 -23 -13 0 -5 41 -9 90 -9 87 0 117 11 65 24 -25
6 -25 8 -27 119 -1 61 -1 138 1 170 3 64 5 62 -73 41z"/>
<path d="M3124 881 c-71 -52 -79 -65 -83 -152 -5 -130 44 -199 144 -199 38 0
95 24 95 40 0 6 -20 10 -45 10 -25 0 -56 7 -70 16 -33 22 -55 84 -55 160 0 56
4 68 25 89 13 14 35 25 47 25 35 0 68 -27 68 -56 0 -13 4 -24 9 -24 12 0 18
99 7 111 -6 5 -31 9 -56 9 -36 0 -56 -7 -86 -29z"/>
<path d="M1340 893 c-8 -3 -27 -17 -42 -30 -28 -27 -48 -24 -48 8 0 15 -7 19
-35 19 l-35 0 2 -187 3 -188 35 0 35 0 -4 138 c-3 133 -3 139 19 162 30 32 73
33 94 3 12 -17 16 -49 16 -134 0 -61 3 -126 6 -143 6 -29 10 -32 38 -29 l31 3
-4 137 c-4 162 5 188 64 188 57 0 65 -23 65 -182 0 -85 4 -139 11 -143 5 -4
21 -4 35 -1 l25 7 -3 165 -3 166 -28 24 c-39 33 -78 31 -122 -7 l-36 -32 -27
26 c-28 27 -67 40 -92 30z"/>
<path d="M1825 881 c-65 -40 -80 -66 -83 -151 -5 -90 18 -156 62 -185 56 -37
174 -27 197 17 10 19 9 19 -23 12 -79 -19 -117 0 -150 74 -28 61 -16 72 79 72
97 0 113 9 106 58 -8 48 -27 87 -55 106 -30 22 -96 20 -133 -3z m88 -29 c9
-10 19 -36 23 -59 6 -39 4 -42 -18 -48 -14 -4 -42 -5 -64 -3 -32 2 -40 7 -42
27 -11 77 56 132 101 83z"/>
<path d="M1716 364 c-23 -23 -19 -30 5 -9 17 16 25 17 52 7 29 -10 30 -10 13
3 -26 19 -51 19 -70 -1z"/>
<path d="M2169 363 c-13 -16 -12 -17 3 -4 10 7 31 11 47 9 17 -2 28 -1 25 4
-9 15 -61 8 -75 -9z"/>
<path d="M2319 363 c-12 -16 -12 -17 1 -7 8 6 22 14 30 17 13 5 12 6 -1 6 -9
1 -23 -7 -30 -16z"/>
<path d="M2371 377 c2 -1 13 -9 24 -17 19 -14 19 -14 6 3 -7 9 -18 17 -24 17
-6 0 -8 -1 -6 -3z"/>
<path d="M2789 363 c-13 -16 -12 -17 4 -4 16 13 21 21 13 21 -2 0 -10 -8 -17
-17z"/>
<path d="M2960 365 c-7 -9 -11 -17 -9 -20 3 -2 10 5 17 15 14 24 10 26 -8 5z"/>
<path d="M1860 341 c0 -17 2 -31 4 -31 8 0 13 51 5 56 -5 3 -9 -9 -9 -25z"/>
<path d="M2876 356 c3 -9 11 -16 16 -16 13 0 5 23 -10 28 -7 2 -10 -2 -6 -12z"/>
<path d="M3056 355 c4 -8 8 -15 10 -15 2 0 4 7 4 15 0 8 -4 15 -10 15 -5 0 -7
-7 -4 -15z"/>
<path d="M2411 324 c0 -11 3 -14 6 -6 3 7 2 16 -1 19 -3 4 -6 -2 -5 -13z"/>
<path d="M1796 313 c-6 -14 -5 -15 5 -6 7 7 10 15 7 18 -3 3 -9 -2 -12 -12z"/>
<path d="M2300 310 c0 -19 3 -21 12 -12 9 9 9 15 0 24 -9 9 -12 7 -12 -12z"/>
<path d="M1690 305 c0 -8 5 -15 10 -15 6 0 10 7 10 15 0 8 -4 15 -10 15 -5 0
-10 -7 -10 -15z"/>
<path d="M2887 296 c-4 -15 -6 -31 -2 -34 10 -10 16 6 13 35 l-3 28 -8 -29z"/>
<path d="M2950 293 c0 -5 10 -18 23 -29 l22 -19 -20 25 c-11 14 -21 27 -22 29
-2 2 -3 0 -3 -6z"/>
<path d="M3057 285 c-4 -8 -2 -17 3 -20 6 -4 10 3 10 14 0 25 -6 27 -13 6z"/>
<path d="M1631 263 c-10 -26 -10 -27 4 -9 8 11 15 23 15 28 0 15 -7 8 -19 -19z"/>
<path d="M2533 266 c-4 -8 -19 -16 -33 -19 -25 -4 -25 -4 2 -6 18 -1 31 6 38
19 12 22 6 28 -7 6z"/>
<path d="M1712 254 c10 -10 20 -16 22 -13 3 3 -5 11 -17 18 -21 13 -21 12 -5
-5z"/>
<path d="M1982 258 c4 -12 22 -12 26 0 1 5 -4 9 -13 9 -9 0 -14 -4 -13 -9z"/>
<path d="M2169 258 c14 -18 66 -25 75 -10 3 5 -8 6 -25 4 -16 -2 -37 2 -47 9
-15 13 -16 12 -3 -3z"/>
<path d="M2365 250 c-28 -7 -28 -8 -5 -9 14 0 32 4 40 9 17 11 8 11 -35 0z"/>
<path d="M2835 250 c-13 -6 -15 -9 -5 -9 8 0 22 4 30 9 18 12 2 12 -25 0z"/>
<path d="M1187 239 c7 -7 15 -10 18 -7 3 3 -2 9 -12 12 -14 6 -15 5 -6 -5z"/>
<path d="M1588 233 c7 -3 16 -2 19 1 4 3 -2 6 -13 5 -11 0 -14 -3 -6 -6z"/>
<path d="M2561 134 c-21 -15 -28 -58 -13 -80 23 -36 82 -17 82 27 0 50 -35 76
-69 53z m51 -29 c10 -21 9 -29 -5 -43 -31 -31 -75 19 -47 53 19 22 39 18 52
-10z"/>
<path d="M3037 144 c-4 -4 -7 -28 -7 -53 0 -29 3 -41 9 -33 4 8 19 19 32 26
34 17 33 60 -1 64 -14 2 -29 0 -33 -4z m47 -23 c3 -5 -1 -15 -10 -22 -13 -10
-17 -10 -24 1 -5 8 -6 18 -4 22 7 11 31 10 38 -1z"/>
<path d="M3229 142 c-6 -18 2 -92 10 -92 4 0 7 12 6 28 0 17 5 27 15 27 19 0
26 -35 9 -46 -7 -4 -10 -11 -6 -15 13 -13 29 13 25 42 -2 21 -9 30 -25 32 -12
2 -23 11 -25 20 -3 12 -5 13 -9 4z"/>
<path d="M3320 100 c0 -27 5 -50 10 -50 6 0 10 23 10 50 0 28 -4 50 -10 50 -5
0 -10 -22 -10 -50z"/>
<path d="M2054 114 c-16 -24 -16 -29 -3 -53 16 -29 59 -36 67 -11 5 13 3 13
-11 1 -22 -17 -47 1 -47 34 0 33 25 51 47 34 14 -12 16 -12 11 1 -8 27 -45 23
-64 -6z"/>
<path d="M2343 90 c0 -30 2 -43 4 -28 2 16 2 40 0 55 -2 16 -4 3 -4 -27z"/>
<path d="M2660 93 c0 -52 1 -53 29 -53 17 0 31 6 35 16 8 20 -10 54 -29 54 -8
0 -19 8 -24 18 -8 13 -10 5 -11 -35z m48 -21 c2 -14 -2 -22 -12 -22 -19 0 -29
17 -22 36 8 22 30 12 34 -14z"/>
<path d="M1155 106 c-21 -32 -10 -74 21 -82 25 -6 44 1 44 18 0 7 -5 6 -15 -2
-22 -19 -45 -4 -45 28 0 36 21 57 38 40 6 -6 15 -8 19 -4 8 8 -15 26 -34 26
-7 0 -20 -11 -28 -24z"/>
<path d="M3605 116 c-17 -12 -17 -14 10 -32 l28 -18 -24 -7 c-23 -7 -23 -7 -2
-8 32 -1 39 19 13 39 -22 17 -22 18 -4 22 12 2 15 6 8 10 -6 4 -19 1 -29 -6z"/>
<path d="M1537 113 c-14 -13 -4 -83 12 -83 7 0 6 79 -1 86 -3 2 -8 1 -11 -3z"/>
<path d="M2921 111 c-18 -11 -7 -41 15 -41 10 0 14 -5 10 -15 -3 -8 -1 -15 4
-15 20 0 10 38 -11 43 -12 3 -18 10 -14 16 3 6 11 8 17 5 7 -4 8 -2 4 4 -8 14
-7 14 -25 3z"/>
<path d="M3427 113 c-23 -22 8 -83 34 -67 9 5 5 10 -10 16 -26 9 -25 44 2 42
9 -1 17 2 17 7 0 10 -34 12 -43 2z"/>
<path d="M3530 110 c13 -9 13 -12 -2 -21 -27 -15 -22 -39 7 -39 22 0 25 4 25
35 0 30 -3 35 -22 35 -19 0 -20 -2 -8 -10z m20 -40 c0 -5 -7 -10 -15 -10 -8 0
-15 5 -15 10 0 6 7 10 15 10 8 0 15 -4 15 -10z"/>
<path d="M1930 96 c-18 -23 -8 -61 17 -64 33 -5 50 33 27 59 -21 23 -28 24
-44 5z m40 -25 c0 -11 -5 -23 -11 -27 -15 -9 -33 12 -26 30 9 23 37 20 37 -3z"/>
<path d="M2246 93 c-8 -26 -26 -31 -26 -8 0 8 -4 15 -9 15 -6 0 -6 -12 0 -30
6 -16 15 -30 20 -30 12 0 31 49 26 64 -2 6 -7 1 -11 -11z"/>
<path d="M2427 103 c-4 -3 -7 -19 -7 -34 0 -29 19 -42 41 -28 11 7 11 9 -3 9
-10 0 -18 5 -18 10 0 6 9 10 20 10 23 0 26 10 8 28 -13 13 -31 16 -41 5z m28
-13 c3 -5 -1 -10 -10 -10 -9 0 -13 5 -10 10 3 6 8 10 10 10 2 0 7 -4 10 -10z"/>
<path d="M2759 108 c-5 -17 -4 -50 3 -60 5 -9 8 -5 8 13 0 14 5 30 12 37 9 9
8 12 -5 12 -9 0 -17 -1 -18 -2z"/>
<path d="M2840 100 c13 -9 13 -12 -2 -21 -19 -11 -25 -39 -8 -39 5 0 7 7 4 15
-4 10 0 15 11 15 12 0 15 -5 11 -16 -3 -9 -1 -14 5 -12 6 2 10 7 10 11 -1 4
-1 18 -1 32 0 19 -5 25 -22 25 -19 0 -20 -2 -8 -10z"/>
<path d="M3133 81 c1 -21 8 -36 17 -39 12 -4 13 -2 3 9 -6 8 -13 25 -16 39 -4
17 -5 15 -4 -9z"/>
<path d="M3178 80 c-3 -17 -1 -33 4 -36 4 -3 8 11 8 30 0 44 -6 47 -12 6z"/>
<path d="M3370 80 c0 -16 5 -30 10 -30 6 0 10 14 10 30 0 17 -4 30 -10 30 -5
0 -10 -13 -10 -30z"/>
<path d="M1260 80 c-11 -21 2 -60 20 -60 23 0 40 14 40 34 0 43 -41 61 -60 26z
m45 -25 c0 -28 -29 -25 -33 3 -3 19 0 23 15 20 10 -2 18 -12 18 -23z"/>
<path d="M1368 93 c-12 -3 -18 -14 -18 -34 0 -37 18 -38 22 -1 4 36 21 34 30
-4 6 -28 6 -28 5 5 -2 36 -9 42 -39 34z"/>
<path d="M1444 88 c-4 -7 2 -18 14 -26 12 -8 22 -21 22 -29 0 -8 5 -11 10 -8
17 11 11 37 -10 42 -25 7 -26 20 -2 26 13 4 12 5 -5 6 -12 0 -25 -4 -29 -11z"/>
<path d="M1591 63 c1 -28 3 -31 6 -13 3 14 10 31 15 38 8 9 6 12 -6 12 -12 0
-16 -9 -15 -37z"/>
<path d="M1653 71 c1 -21 8 -36 17 -39 12 -4 13 -2 3 9 -6 8 -13 25 -16 39 -4
17 -5 15 -4 -9z"/>
<path d="M1699 70 c-7 -35 -4 -48 7 -38 3 4 4 21 2 40 l-3 33 -6 -35z"/>
<path d="M1745 80 c-4 -13 0 -31 9 -45 19 -29 31 -32 40 -10 4 10 -1 15 -14
15 -30 0 -27 47 3 53 19 4 19 4 -5 6 -19 1 -29 -5 -33 -19z"/>
<path d="M1855 91 c19 -8 19 -8 -3 -20 -22 -12 -31 -41 -12 -41 6 0 10 7 10
15 0 8 5 15 10 15 6 0 10 -8 10 -17 0 -12 3 -14 11 -6 20 20 6 58 -21 60 -22
2 -22 2 -5 -6z"/>
<path d="M2162 70 c0 -19 2 -27 5 -17 2 9 2 25 0 35 -3 9 -5 1 -5 -18z"/>
<path d="M2290 70 c0 -16 5 -30 10 -30 6 0 10 14 10 30 0 17 -4 30 -10 30 -5
0 -10 -13 -10 -30z"/>
<path d="M2910 50 c0 -5 5 -10 11 -10 5 0 7 5 4 10 -3 6 -8 10 -11 10 -2 0 -4
-4 -4 -10z"/>
</g>
</svg>
